#!OML:ASF E:\emotionWalksFemale\Project 1\Capture day 1\Session 1\Female1.ASF
:FULLY-SPECIFIED
:DEGREES
1882
root 10.2536 15.5226 -25.1785 -1.47762 10.0756 -0.556274
lowerback 2.69799 -0.964095 -3.10545
upperback -4.5714 -1.37029 1.74226
thorax -6.15582 -0.483036 3.66929
lowerneck -5.24391 -8.47899 -8.51618
upperneck 24.3846 -17.5588 25.1716
head 12.142 -6.61511 8.79431
rclavicle 1.69464e-014 7.95139e-016
rhumerus -43.9427 0.521615 -82.7741
rradius 33.0402
rwrist 15.1367
rhand -4.67208 -53.344
rfingers 7.12502
rthumb 21.1085 -82.215
lclavicle 1.69464e-014 7.95139e-016
lhumerus -44.1873 -6.19088 91.0056
lradius 35.5276
lwrist -15.5801
lhand -5.36985 -34.1611
lfingers 7.12502
lthumb 20.438 -5.21676
rfemur -12.3137 20.1591 26.0675
rtibia 19.2608
rfoot -11.7596 -32.617
rtoes 24.3966
lfemur 10.4768 -5.17312 -22.2559
ltibia 38.2801
lfoot 15.0488 -4.57363
ltoes 5.40017
1883
root 10.2393 15.5293 -25.0705 -1.57768 10.0535 -0.902689
lowerback 2.73735 -0.951112 -2.73651
upperback -4.62747 -1.32857 1.80918
thorax -6.24619 -0.475219 3.53045
lowerneck -5.16459 -8.48574 -8.53977
upperneck 24.3029 -17.5741 25.2652
head 12.1109 -6.62751 8.8338
rclavicle 8.94531e-015 -2.78299e-015
rhumerus -43.8631 0.717894 -82.8374
rradius 33.0249
rwrist 15.1243
rhand -4.83431 -53.2529
rfingers 7.12502
rthumb 20.9526 -82.1412
lclavicle 8.94531e-015 -2.78299e-015
lhumerus -44.0255 -6.04784 90.7498
lradius 35.5276
lwrist -15.4305
lhand -5.07631 -34.6424
lfingers 7.12502
lthumb 20.7201 -5.72851
rfemur -11.6544 19.8126 26.8013
rtibia 18.9134
rfoot -11.29 -32.3262
rtoes 24.16
lfemur 9.66312 -4.78712 -21.4448
ltibia 39.8207
lfoot 16.6402 -4.48615
ltoes 8.31048
1884
root 10.2285 15.5337 -24.9645 -1.69599 10.0494 -1.10386
lowerback 2.60872 -0.998053 -2.54102
upperback -4.48265 -1.37261 1.89936
thorax -6.01641 -0.510864 3.51146
lowerneck -5.41785 -8.48384 -8.58219
upperneck 24.2394 -17.5449 25.256
head 12.1366 -6.60453 8.82634
rclavicle -4.62174e-015 3.00165e-014
rhumerus -43.4843 0.995645 -82.8249
rradius 33.0682
rwrist 15.3233
rhand -4.99231 -53.0803
rfingers 7.12502
rthumb 20.8008 -81.9854
lclavicle -4.62174e-015 3.00165e-014
lhumerus -43.3906 -5.57934 90.3902
lradius 35.4781
lwrist -14.742
lhand -3.86074 -34.6718
lfingers 7.12502
lthumb 21.8877 -5.88979
rfemur -10.918 19.5739 27.3703
rtibia 18.515
rfoot -10.8392 -32.1412
rtoes 24.5407
lfemur 8.91025 -4.44868 -20.8684
ltibia 41.4037
lfoot 17.7905 -4.66086
ltoes 9.43938
1885
root 10.214 15.5342 -24.8566 -1.85294 10.0066 -1.28071
lowerback 2.67478 -0.999383 -2.42158
upperback -4.4914 -1.3654 1.96264
thorax -6.06513 -0.51003 3.51187
lowerneck -5.3079 -8.49525 -8.56211
upperneck 24.1406 -17.5263 25.2092
head 12.0586 -6.61203 8.7989
rclavicle 2.3059e-014 2.14687e-014
rhumerus -43.558 1.47755 -83.0387
rradius 33.1903
rwrist 14.585
rhand -6.51171 -52.1951
rfingers 7.12502
rthumb 19.3404 -81.2534
lclavicle 2.3059e-014 2.14687e-014
lhumerus -43.1411 -5.3283 90.1573
lradius 35.1827
lwrist -15.1369
lhand -4.58775 -34.9875
lfingers 7.12502
lthumb 21.1895 -6.12552
rfemur -10.1493 19.3703 27.9426
rtibia 18.1655
rfoot -10.4405 -32.08
rtoes 25.1175
lfemur 8.21375 -4.03344 -20.2949
ltibia 42.9999
lfoot 19.0514 -4.91055
ltoes 10.3031
1886
root 10.1992 15.5331 -24.7534 -1.98456 9.91088 -1.57297
lowerback 2.75567 -0.974303 -2.15473
upperback -4.51811 -1.31355 2.03477
thorax -6.14728 -0.492892 3.43583
lowerneck -5.14071 -8.51709 -8.56112
upperneck 24.0174 -17.5422 25.2528
head 11.9819 -6.63561 8.81031
rclavicle 1.07841e-014 8.94531e-015
rhumerus -43.454 1.54334 -82.9761
rradius 33.1604
rwrist 14.9447
rhand -6.43443 -52.5281
rfingers 7.12502
rthumb 19.4147 -81.5789
lclavicle 1.07841e-014 8.94531e-015
lhumerus -42.8847 -5.08388 89.9466
lradius 35.2076
lwrist -15.0779
lhand -4.23758 -34.4526
lfingers 7.12502
lthumb 21.5258 -5.6288
rfemur -9.50369 19.1402 28.6115
rtibia 17.9204
rfoot -9.97456 -32.0638
rtoes 24.8358
lfemur 7.44374 -3.5026 -19.5674
ltibia 44.6224
lfoot 20.437 -4.97469
ltoes 10.6859
1887
root 10.1895 15.5278 -24.6554 -2.14326 9.81362 -1.83805
lowerback 2.93416 -0.972277 -1.71637
upperback -4.55791 -1.28804 2.00733
thorax -6.30233 -0.498462 3.16364
lowerneck -5.2071 -8.533 -8.52511
upperneck 24.2335 -17.6257 25.2226
head 12.0967 -6.65552 8.79428
rclavicle 1.44616e-014 -1.49089e-014
rhumerus -43.2371 1.5144 -82.9848
rradius 32.907
rwrist 15.8781
rhand -6.56293 -52.6623
rfingers 7.12502
rthumb 19.2911 -81.7255
lclavicle 1.44616e-014 -1.49089e-014
lhumerus -42.5543 -4.75356 89.5398
lradius 34.9767
lwrist -15.3773
lhand -4.67413 -34.5629
lfingers 7.12502
lthumb 21.1065 -5.69165
rfemur -8.8419 18.8969 29.2173
rtibia 17.6754
rfoot -9.82249 -31.9404
rtoes 24.6835
lfemur 6.66668 -3.06119 -18.9575
ltibia 46.2948
lfoot 21.6706 -4.59345
ltoes 12.4247
1888
root 10.1805 15.5217 -24.5587 -2.33862 9.6948 -2.04844
lowerback 3.01964 -0.909829 -1.55338
upperback -4.58411 -1.19025 2.08641
thorax -6.38738 -0.453982 3.14955
lowerneck -4.71739 -8.4735 -8.58638
upperneck 23.9227 -17.4979 25.4098
head 11.8653 -6.64355 8.90077
rclavicle -4.22417e-014 1.88845e-014
rhumerus -43.1026 1.6375 -82.8749
rradius 32.5582
rwrist 16.4542
rhand -7.23745 -51.8358
rfingers 7.12502
rthumb 18.6424 -80.9625
lclavicle -4.22417e-014 1.88845e-014
lhumerus -42.2422 -4.35378 89.3133
lradius 34.6492
lwrist -15.828
lhand -4.6961 -34.6085
lfingers 7.12502
lthumb 21.0854 -5.73494
rfemur -8.12719 18.5814 29.7561
rtibia 17.3846
rfoot -9.61741 -31.6444
rtoes 23.9272
lfemur 5.928 -2.65854 -18.4533
ltibia 48.0283
lfoot 22.4034 -3.94718
ltoes 14.1311
1889
root 10.1685 15.5198 -24.4644 -2.49438 9.62636 -2.30103
lowerback 3.35938 -0.898663 -1.38342
upperback -4.62429 -1.15799 2.22252
thorax -6.62917 -0.43813 3.20346
lowerneck -4.83705 -8.46826 -8.66273
upperneck 23.9106 -17.4797 25.4184
head 11.8907 -6.63345 8.91629
rclavicle -1.22253e-014 -2.06736e-014
rhumerus -42.8475 1.83212 -82.7586
rradius 32.2839
rwrist 16.8227
rhand -7.01992 -51.7829
rfingers 7.12502
rthumb 18.8517 -80.8894
lclavicle -1.22253e-014 -2.06736e-014
lhumerus -41.9289 -3.78743 89.083
lradius 34.5478
lwrist -16.2232
lhand -4.72141 -34.6262
lfingers 7.12502
lthumb 21.0611 -5.74992
rfemur -7.46739 18.3185 30.3209
rtibia 17.0968
rfoot -9.3619 -31.477
rtoes 22.7552
lfemur 5.06993 -2.19278 -17.8596
ltibia 49.7948
lfoot 22.8814 -3.65191
ltoes 13.2622
1890
root 10.1569 15.5163 -24.3753 -2.57849 9.50473 -2.63743
lowerback 3.2593 -0.889812 -0.966625
upperback -4.51591 -1.11801 2.25584
thorax -6.46465 -0.441488 2.99508
lowerneck -4.94779 -8.47719 -8.57134
upperneck 23.9085 -17.5048 25.4183
head 11.9116 -6.62842 8.89005
rclavicle 1.20762e-014 1.88845e-014
rhumerus -42.3645 1.79253 -82.8128
rradius 32.063
rwrist 17.3273
rhand -6.83861 -52.3676
rfingers 7.12502
rthumb 19.026 -81.457
lclavicle 1.20762e-014 1.88845e-014
lhumerus -41.3716 -3.38965 88.6811
lradius 34.4081
lwrist -16.4478
lhand -5.20273 -35.0329
lfingers 7.12502
lthumb 20.5986 -6.10585
rfemur -6.922 18.04 30.9382
rtibia 16.8232
rfoot -9.25526 -31.2207
rtoes 22.2023
lfemur 4.02721 -1.63445 -17.1674
ltibia 51.5386
lfoot 23.5329 -3.502
ltoes 10.7362
1891
root 10.1467 15.511 -24.2869 -2.65516 9.30098 -2.92705
lowerback 3.16173 -0.844248 -0.664238
upperback -4.42048 -1.03436 2.3431
thorax -6.31527 -0.415045 2.90462
lowerneck -5.12585 -8.52523 -8.51464
upperneck 24.0487 -17.5941 25.318
head 12.009 -6.6496 8.82581
rclavicle 2.32081e-014 1.19271e-015
rhumerus -41.8787 1.82901 -82.7872
rradius 31.8039
rwrist 17.7651
rhand -7.04281 -52.567
rfingers 7.12502
rthumb 18.8296 -81.6756
lclavicle 2.32081e-014 1.19271e-015
lhumerus -40.8313 -2.94779 88.4148
lradius 34.2561
lwrist -16.5744
lhand -5.18382 -35.0213
lfingers 7.12502
lthumb 20.6168 -6.09616
rfemur -6.40749 17.7229 31.4912
rtibia 16.5963
rfoot -9.31554 -30.807
rtoes 22.1513
lfemur 3.01991 -1.0239 -16.5464
ltibia 53.2127
lfoot 23.7785 -3.16309
ltoes 7.21284
